<svg xmlns="http://www.w3.org/2000/svg"
     width="24" height="24" viewBox="0 0 24 24"
     fill="currentColor"
>
  <path fill-rule="evenodd" clip-rule="evenodd" d="M8.3358 10.2065H10.2155C10.3461 10.2065 10.4529 10.3176 10.4529 10.4539V11.5969C10.6793 11.6544 10.8804 11.7885 11.0238 11.9776C11.1672 12.1668 11.2447 12.4001 11.2438 12.6401C11.2438 13.2323 10.7831 13.7128 10.2155 13.7128C9.64732 13.7128 9.18655 13.2323 9.18655 12.6401C9.18655 12.1333 9.52465 11.7081 9.9781 11.5963V10.7013H8.33641V13.6299C8.33658 13.6724 8.32611 13.7143 8.30602 13.7514C8.28593 13.7886 8.25688 13.8198 8.22168 13.8421L6.57999 14.8727C6.54275 14.8962 6.4999 14.9085 6.45624 14.9082C6.41258 14.908 6.36984 14.8953 6.33283 14.8715L3.32653 12.9334C3.29184 12.911 3.26327 12.8798 3.24352 12.8429C3.22377 12.806 3.21348 12.7645 3.21363 12.7223V10.7007L1.7117 9.80264C1.67755 9.78226 1.64878 9.75357 1.62792 9.71907C1.60706 9.68458 1.59476 9.64534 1.59208 9.60481V6.37108C1.59208 6.28316 1.63664 6.20151 1.70926 6.15755L3.21363 5.23937V3.25731C3.21363 3.17629 3.25147 3.10093 3.31433 3.05508L3.32714 3.04629L6.33405 1.12829C6.37132 1.10441 6.41434 1.09175 6.45824 1.09175C6.50214 1.09175 6.54517 1.10441 6.58244 1.12829L8.22412 2.18024C8.25881 2.20264 8.28738 2.23378 8.30713 2.2707C8.32689 2.30762 8.33717 2.34911 8.33702 2.39126V5.23686H10.6903V4.03293C10.4638 3.97545 10.2627 3.84127 10.1192 3.65196C9.97576 3.46265 9.89833 3.2292 9.89937 2.98914C9.89937 2.39691 10.3601 1.91647 10.9277 1.91647C11.4959 1.91647 11.956 2.39691 11.956 2.98914C11.956 3.49596 11.6186 3.92114 11.1651 4.03293V5.4843C11.1654 5.5166 11.1594 5.54864 11.1476 5.57856C11.1358 5.60849 11.1184 5.63573 11.0963 5.65872C11.0742 5.6817 11.048 5.69998 11.0191 5.71252C10.9901 5.72505 10.9591 5.73158 10.9277 5.73175H8.33702V6.86597H12.3796C12.4315 6.63246 12.5587 6.42389 12.7404 6.27418C12.9221 6.12447 13.1477 6.04242 13.3805 6.04137C13.948 6.04137 14.4088 6.52118 14.4088 7.11341C14.4088 7.70565 13.9487 8.18609 13.3805 8.18609C13.1476 8.185 12.922 8.10286 12.7402 7.95303C12.5585 7.80319 12.4314 7.59448 12.3796 7.36086H8.3358V8.57735H11.3586L11.917 9.31843C12.0725 9.22484 12.2495 9.17563 12.4296 9.17586C12.9978 9.17586 13.458 9.65568 13.458 10.2479C13.458 10.8401 12.9978 11.3206 12.4296 11.3206C11.8621 11.3206 11.4013 10.8401 11.4013 10.2479C11.4013 10.0306 11.4635 9.82839 11.5697 9.65945L11.1279 9.07224H8.3358V10.2065ZM6.45794 1.62946L5.21111 2.42454V4.28853H4.7363V2.72725L3.68843 3.3961V5.24565L4.97615 6.09977L6.29865 5.24314V3.81374H6.77346V5.38131C6.77346 5.46672 6.73074 5.54648 6.66116 5.5917L5.23125 6.51678V7.82372L6.09908 8.4574L5.82689 8.8631L4.96883 8.23633L4.03508 8.8675L3.77693 8.453L4.75644 7.79043V6.54065L3.44615 5.6702L2.06689 6.51176V7.56434L3.27039 6.81761L3.51328 7.24279L2.06689 8.14024V9.44466L3.38878 10.2347L4.77414 9.37558L5.01643 9.80075L3.68843 10.6241V12.5848L4.83334 13.3227L6.27668 12.4272L6.51958 12.853L5.28862 13.6167L6.45916 14.3709L7.86161 13.4898V9.85979L4.95784 11.6767L4.71372 11.2528L7.86161 9.28326V2.52942L6.45794 1.62946ZM10.2155 12.0635C10.1422 12.064 10.0697 12.0792 10.0022 12.1085C9.93469 12.1378 9.87343 12.1805 9.82196 12.2342C9.77049 12.2878 9.7298 12.3514 9.70225 12.4213C9.67469 12.4912 9.66079 12.5659 9.66135 12.6413C9.66135 12.9597 9.90913 13.2179 10.2155 13.2179C10.2887 13.2174 10.361 13.2021 10.4285 13.1728C10.4959 13.1435 10.557 13.1009 10.6084 13.0473C10.6598 12.9937 10.7005 12.9302 10.728 12.8604C10.7556 12.7907 10.7695 12.716 10.769 12.6407C10.7696 12.5654 10.7557 12.4906 10.7282 12.4208C10.7007 12.351 10.6601 12.2874 10.6086 12.2337C10.5572 12.1801 10.4961 12.1374 10.4286 12.1081C10.3611 12.0788 10.2887 12.064 10.2155 12.0635ZM12.4309 9.67075C12.3576 9.67116 12.2851 9.68644 12.2176 9.71572C12.15 9.74499 12.0888 9.78769 12.0373 9.84136C11.9858 9.89503 11.9452 9.95861 11.9176 10.0285C11.89 10.0984 11.8761 10.1731 11.8767 10.2485C11.8767 10.5676 12.1245 10.8263 12.4302 10.8263C12.5035 10.8259 12.576 10.8106 12.6435 10.7814C12.7111 10.7521 12.7723 10.7094 12.8238 10.6557C12.8753 10.6021 12.9159 10.5385 12.9435 10.4686C12.9711 10.3987 12.985 10.3239 12.9844 10.2485C12.985 10.1731 12.9711 10.0984 12.9435 10.0285C12.9159 9.95861 12.8753 9.89503 12.8238 9.84136C12.7723 9.78769 12.7111 9.74499 12.6435 9.71572C12.576 9.68644 12.5041 9.67116 12.4309 9.67075ZM13.3799 6.53688C13.3066 6.53729 13.2341 6.55257 13.1666 6.58185C13.099 6.61112 13.0378 6.65382 12.9863 6.70749C12.9348 6.76116 12.8942 6.82475 12.8666 6.89462C12.839 6.96449 12.8252 7.03927 12.8257 7.11467C12.8257 7.43308 13.0741 7.6912 13.3799 7.6912C13.453 7.69071 13.5254 7.67539 13.5928 7.64612C13.6602 7.61684 13.7214 7.57419 13.7728 7.5206C13.8242 7.467 13.8648 7.40351 13.8924 7.33376C13.9199 7.264 13.9339 7.18934 13.9334 7.11404C13.934 7.03869 13.9201 6.96396 13.8926 6.89413C13.865 6.8243 13.8244 6.76074 13.773 6.70708C13.7216 6.65342 13.6604 6.61071 13.593 6.5814C13.5255 6.55209 13.4531 6.53737 13.3799 6.53688ZM10.9271 2.41072C10.8539 2.41122 10.7815 2.42656 10.714 2.45587C10.6465 2.48518 10.5854 2.52789 10.534 2.58155C10.4825 2.63521 10.4419 2.69877 10.4144 2.7686C10.3869 2.83843 10.373 2.91316 10.3736 2.98851C10.3736 3.30755 10.6213 3.5663 10.9271 3.5663C11.0004 3.56589 11.0729 3.55061 11.1404 3.52133C11.2079 3.49206 11.2692 3.44937 11.3206 3.3957C11.3721 3.34203 11.4128 3.27844 11.4404 3.20857C11.4679 3.1387 11.4818 3.06392 11.4812 2.98851C11.4818 2.91311 11.4679 2.83833 11.4404 2.76846C11.4128 2.69859 11.3721 2.635 11.3206 2.58133C11.2692 2.52766 11.2079 2.48497 11.1404 2.45569C11.0729 2.42642 11.0004 2.41114 10.9271 2.41072Z"/>
<path d="M6.45826 1C6.51968 1 6.57985 1.01716 6.6317 1.05037L8.27312 2.1028C8.32083 2.1337 8.3606 2.1766 8.38756 2.22693C8.41458 2.27743 8.42888 2.33414 8.42868 2.39154V5.14495H10.5985V4.10152C10.3802 4.03065 10.187 3.89362 10.046 3.70753C9.90984 3.52772 9.82918 3.31137 9.81174 3.08597L9.80816 2.98882C9.80833 2.34909 10.3065 1.82408 10.9275 1.82395C11.5492 1.82395 12.0475 2.34905 12.0477 2.98882C12.0477 3.51081 11.716 3.9548 11.2565 4.10152V5.48316C11.2568 5.5273 11.2485 5.5717 11.2323 5.61269C11.2162 5.65345 11.1928 5.69088 11.1626 5.72243C11.1322 5.75412 11.0955 5.77969 11.0553 5.79709C11.0152 5.81447 10.972 5.82383 10.9284 5.82408H8.42868V6.77396H12.3096C12.3746 6.54988 12.5037 6.35007 12.6824 6.20277C12.8802 6.03992 13.1259 5.95032 13.3798 5.94911C14.0007 5.94923 14.4998 6.47328 14.5 7.11308C14.5 7.75292 14.0024 8.27783 13.3807 8.27795C13.1268 8.2767 12.8802 8.18725 12.6824 8.02428C12.5037 7.87692 12.3745 7.6772 12.3096 7.45309H8.42779V8.48483H11.404L11.9431 9.20085C12.0943 9.12476 12.2602 9.08374 12.4294 9.08391C13.0512 9.08391 13.5496 9.6079 13.5497 10.2479C13.5497 10.8878 13.0513 11.4127 12.4294 11.4127C11.8083 11.4126 11.3101 10.8878 11.3101 10.2479C11.3101 10.0363 11.3664 9.83887 11.4612 9.66769L11.0821 9.16397H8.42779V10.1147H10.2158C10.3998 10.1149 10.5448 10.2699 10.5448 10.4539V11.5279C10.763 11.5987 10.9554 11.7359 11.0965 11.9219C11.2521 12.1271 11.336 12.3799 11.3352 12.6397C11.3352 13.2795 10.8369 13.8044 10.2158 13.8045C9.59406 13.8045 9.09473 13.2797 9.09473 12.6397C9.0949 12.1177 9.42727 11.6735 9.88684 11.527V10.7939H8.42779V13.6291C8.42802 13.6871 8.41415 13.7447 8.38667 13.7955C8.3592 13.8464 8.31899 13.8889 8.27044 13.9197L6.62812 14.9505C6.57632 14.9831 6.5166 15.0003 6.45557 15C6.3946 14.9996 6.33535 14.9818 6.28392 14.9487L3.27732 13.0112C3.22941 12.9802 3.18992 12.9367 3.16288 12.8861C3.13604 12.8358 3.12162 12.7796 3.12176 12.7224V10.7525L1.6645 9.88178C1.61766 9.85365 1.57847 9.81361 1.55007 9.76664C1.52155 9.71946 1.50455 9.66618 1.50089 9.61102L1.5 9.60473L1.50089 6.37098C1.50093 6.25239 1.56053 6.14005 1.66182 6.07864L3.12176 5.18723V3.25687C3.12189 3.14751 3.17329 3.04435 3.26033 2.98072L3.26301 2.97893L3.27553 2.96993L3.27821 2.96813L6.28482 1.05037C6.33666 1.01717 6.39684 1 6.45826 1ZM6.45824 1.09175C6.41434 1.09175 6.37132 1.10441 6.33405 1.12829L3.32714 3.04629L3.31433 3.05508C3.25147 3.10093 3.21363 3.17629 3.21363 3.25731V5.23937L1.70926 6.15755C1.63664 6.20151 1.59208 6.28316 1.59208 6.37108V9.60481C1.59476 9.64534 1.60706 9.68458 1.62792 9.71907C1.64878 9.75357 1.67755 9.78226 1.7117 9.80264L3.21363 10.7007V12.7223C3.21348 12.7645 3.22377 12.806 3.24352 12.8429C3.26327 12.8798 3.29184 12.911 3.32653 12.9334L6.33283 14.8715C6.36984 14.8953 6.41258 14.908 6.45624 14.9082C6.4999 14.9085 6.54275 14.8962 6.57999 14.8727L8.22168 13.8421C8.25688 13.8198 8.28593 13.7886 8.30602 13.7514C8.32611 13.7143 8.33658 13.6724 8.33641 13.6299V10.7013H9.9781V11.5963C9.52465 11.7081 9.18655 12.1333 9.18655 12.6401C9.18655 13.2323 9.64732 13.7128 10.2155 13.7128C10.7831 13.7128 11.2438 13.2323 11.2438 12.6401C11.2447 12.4001 11.1672 12.1668 11.0238 11.9776C10.8804 11.7885 10.6793 11.6544 10.4529 11.5969V10.4539C10.4529 10.3176 10.3461 10.2065 10.2155 10.2065H8.3358V9.07224H11.1279L11.5697 9.65945C11.4635 9.82839 11.4013 10.0306 11.4013 10.2479C11.4013 10.8401 11.8621 11.3206 12.4296 11.3206C12.9978 11.3206 13.458 10.8401 13.458 10.2479C13.458 9.65568 12.9978 9.17586 12.4296 9.17586C12.2495 9.17563 12.0725 9.22484 11.917 9.31843L11.3586 8.57735H8.3358V7.36086H12.3796C12.4314 7.59448 12.5585 7.80319 12.7402 7.95303C12.922 8.10286 13.1476 8.185 13.3805 8.18609C13.9487 8.18609 14.4088 7.70565 14.4088 7.11341C14.4088 6.52118 13.948 6.04137 13.3805 6.04137C13.1477 6.04242 12.9221 6.12447 12.7404 6.27418C12.5587 6.42389 12.4315 6.63246 12.3796 6.86597H8.33702V5.73175H10.9277C10.9591 5.73158 10.9901 5.72505 11.0191 5.71252C11.048 5.69998 11.0742 5.6817 11.0963 5.65872C11.1184 5.63573 11.1358 5.60849 11.1476 5.57856C11.1594 5.54864 11.1654 5.5166 11.1651 5.4843V4.03293C11.6186 3.92114 11.956 3.49596 11.956 2.98914C11.956 2.39691 11.4959 1.91647 10.9277 1.91647C10.3601 1.91647 9.89937 2.39691 9.89937 2.98914C9.89833 3.2292 9.97576 3.46265 10.1192 3.65196C10.2627 3.84127 10.4638 3.97545 10.6903 4.03293V5.23686H8.33702V2.39126C8.33717 2.34911 8.32689 2.30762 8.30713 2.2707C8.28738 2.23378 8.25881 2.20264 8.22412 2.18024L6.58244 1.12829C6.54517 1.10441 6.50214 1.09175 6.45824 1.09175ZM7.86161 2.52942V9.28326L4.71372 11.2528L4.95784 11.6767L7.86161 9.85979V13.4898L6.45916 14.3709L5.28862 13.6167L6.51958 12.853L6.27668 12.4272L4.83334 13.3227L3.68843 12.5848V10.6241L5.01643 9.80075L4.77414 9.37558L3.38878 10.2347L2.06689 9.44466V8.14024L3.51328 7.24279L3.27039 6.81761L2.06689 7.56434V6.51176L3.44615 5.6702L4.75644 6.54065V7.79043L3.77693 8.453L4.03508 8.8675L4.96883 8.23633L5.82689 8.8631L6.09908 8.4574L5.23125 7.82372V6.51678L6.66116 5.5917C6.73074 5.54648 6.77346 5.46672 6.77346 5.38131V3.81374H6.29865V5.24314L4.97615 6.09977L3.68843 5.24565V3.3961L4.7363 2.72725V4.28853H5.21111V2.42454L6.45794 1.62946L7.86161 2.52942ZM5.30228 2.4752V4.38036H4.64518V2.89437L3.77976 3.44667V5.19532L4.97596 5.98959L6.20704 5.19262V3.72192H6.86504V5.38152C6.86497 5.4973 6.80741 5.60679 6.71126 5.66936L5.32285 6.56618V7.77602L6.1525 8.38319L6.22492 8.43536L6.17485 8.50912L5.90307 8.9148L5.84943 8.99396L5.77343 8.93729L4.96613 8.34811L4.08641 8.94359L4.00774 8.99666L3.95767 8.9166L3.6993 8.50193L3.65192 8.42637L3.72612 8.37689L4.66484 7.74094V6.58956L3.44361 5.7782L2.158 6.56348V7.39912L3.22189 6.73888L3.30235 6.68941L3.34974 6.77127L3.59291 7.19673L3.63672 7.27409L3.56162 7.32087L2.158 8.19159V9.39154L3.38728 10.1264L4.72653 9.29709L4.80699 9.24762L4.85348 9.32948L5.09576 9.75494L5.13957 9.8323L5.06447 9.87908L3.77976 10.6751V12.5344L4.83381 13.2136L6.22849 12.3491L6.30895 12.2988L6.35634 12.3815L6.59862 12.807L6.64332 12.8843L6.56733 12.9311L5.45963 13.6174L6.46004 14.2615L7.76979 13.4384V10.0257L4.9259 11.8049L4.87852 11.7231L4.63445 11.2985L4.58975 11.222L4.66574 11.1744L7.76979 9.23233V2.57954L6.45736 1.7376L5.30228 2.4752ZM10.2155 12.0635C10.2887 12.064 10.3611 12.0788 10.4286 12.1081C10.4961 12.1374 10.5572 12.1801 10.6086 12.2337C10.6601 12.2874 10.7007 12.351 10.7282 12.4208C10.7557 12.4906 10.7696 12.5654 10.769 12.6407C10.7695 12.716 10.7556 12.7907 10.728 12.8604C10.7005 12.9302 10.6598 12.9937 10.6084 13.0473C10.557 13.1009 10.4959 13.1435 10.4285 13.1728C10.361 13.2021 10.2887 13.2174 10.2155 13.2179C9.90913 13.2179 9.66135 12.9597 9.66135 12.6413C9.66079 12.5659 9.67469 12.4912 9.70225 12.4213C9.7298 12.3514 9.77049 12.2878 9.82196 12.2342C9.87343 12.1805 9.93469 12.1378 10.0022 12.1085C10.0697 12.0792 10.1422 12.064 10.2155 12.0635ZM10.2149 12.1557C10.1544 12.1562 10.0947 12.1693 10.0388 12.1935C9.98256 12.2179 9.93083 12.2529 9.88773 12.2979C9.84463 12.3428 9.81079 12.3965 9.7876 12.4553C9.76441 12.5141 9.75227 12.577 9.75273 12.6406C9.75281 12.9108 9.96233 13.1242 10.2149 13.1245C10.2757 13.1241 10.3359 13.1128 10.392 13.0885C10.4481 13.0642 10.4991 13.0281 10.5422 12.9833C10.5852 12.9385 10.62 12.8854 10.6432 12.8268C10.6664 12.7681 10.6775 12.7049 10.6772 12.6415V12.6397C10.6776 12.5763 10.6663 12.513 10.6432 12.4544C10.6201 12.3958 10.5859 12.3427 10.5431 12.2979C10.5 12.2529 10.4482 12.2171 10.392 12.1926C10.3363 12.1685 10.2762 12.1562 10.2149 12.1557ZM12.4309 9.67075C12.5041 9.67116 12.576 9.68644 12.6435 9.71572C12.7111 9.74499 12.7723 9.78769 12.8238 9.84136C12.8753 9.89503 12.9159 9.95861 12.9435 10.0285C12.9711 10.0984 12.985 10.1731 12.9844 10.2485C12.985 10.3239 12.9711 10.3987 12.9435 10.4686C12.9159 10.5385 12.8753 10.6021 12.8238 10.6557C12.7723 10.7094 12.7111 10.7521 12.6435 10.7814C12.576 10.8106 12.5035 10.8259 12.4302 10.8263C12.1245 10.8263 11.8767 10.5676 11.8767 10.2485C11.8761 10.1731 11.89 10.0984 11.9176 10.0285C11.9452 9.95861 11.9858 9.89503 12.0373 9.84136C12.0888 9.78769 12.15 9.74499 12.2176 9.71572C12.2851 9.68644 12.3576 9.67116 12.4309 9.67075ZM12.4303 9.76304C12.3699 9.76352 12.31 9.77579 12.2542 9.79992C12.1979 9.82432 12.1462 9.86023 12.1031 9.90516C12.06 9.95012 12.0262 10.0038 12.003 10.0626C11.9798 10.1214 11.9676 10.1843 11.9681 10.2479C11.9682 10.5189 12.1778 10.7332 12.4294 10.7336C12.4904 10.7333 12.5511 10.7211 12.6074 10.6967C12.6636 10.6723 12.7145 10.6364 12.7575 10.5915C12.8006 10.5466 12.8354 10.4937 12.8586 10.435C12.8817 10.3763 12.893 10.3131 12.8925 10.2497V10.2479C12.893 10.1844 12.8817 10.1213 12.8586 10.0626C12.8354 10.0038 12.8007 9.95012 12.7575 9.90516C12.7145 9.86033 12.6635 9.82428 12.6074 9.79992C12.551 9.7755 12.4911 9.76338 12.4303 9.76304ZM13.3799 6.53688C13.4531 6.53737 13.5255 6.55209 13.593 6.5814C13.6604 6.61071 13.7216 6.65342 13.773 6.70708C13.8244 6.76074 13.865 6.8243 13.8926 6.89413C13.9201 6.96396 13.934 7.03869 13.9334 7.11404C13.9339 7.18934 13.9199 7.264 13.8924 7.33376C13.8648 7.40351 13.8242 7.467 13.7728 7.5206C13.7214 7.57419 13.6602 7.61684 13.5928 7.64612C13.5254 7.67539 13.453 7.69071 13.3799 7.6912C13.0741 7.6912 12.8257 7.43308 12.8257 7.11467C12.8252 7.03927 12.839 6.96449 12.8666 6.89462C12.8942 6.82475 12.9348 6.76116 12.9863 6.70749C13.0378 6.65382 13.099 6.61112 13.1666 6.58185C13.2341 6.55257 13.3066 6.53729 13.3799 6.53688ZM13.3798 6.62914C13.3191 6.62956 13.2588 6.64173 13.2028 6.66602C13.1466 6.69037 13.0956 6.72644 13.0526 6.77127C13.0095 6.81623 12.9747 6.86988 12.9516 6.92868C12.9284 6.98745 12.9171 7.05045 12.9176 7.11398C12.9177 7.38397 13.127 7.59737 13.3789 7.59792C13.4398 7.59751 13.5006 7.58633 13.5568 7.56194C13.613 7.53754 13.664 7.50156 13.707 7.45669C13.7499 7.41191 13.7839 7.3587 13.8071 7.30018C13.8303 7.24154 13.8424 7.17828 13.842 7.11488V7.11308C13.8424 7.04964 13.8303 6.98647 13.8071 6.92778C13.784 6.8692 13.7499 6.8161 13.707 6.77127C13.664 6.72635 13.613 6.69045 13.5568 6.66602C13.5012 6.64187 13.441 6.62963 13.3798 6.62914ZM10.9271 2.41072C11.0004 2.41114 11.0729 2.42642 11.1404 2.45569C11.2079 2.48497 11.2692 2.52766 11.3206 2.58133C11.3721 2.635 11.4128 2.69859 11.4404 2.76846C11.4679 2.83833 11.4818 2.91311 11.4812 2.98851C11.4818 3.06392 11.4679 3.1387 11.4404 3.20857C11.4128 3.27844 11.3721 3.34203 11.3206 3.3957C11.2692 3.44937 11.2079 3.49206 11.1404 3.52133C11.0729 3.55061 11.0004 3.56589 10.9271 3.5663C10.6213 3.5663 10.3736 3.30755 10.3736 2.98851C10.373 2.91316 10.3869 2.83843 10.4144 2.7686C10.4419 2.69877 10.4825 2.63521 10.534 2.58155C10.5854 2.52789 10.6465 2.48518 10.714 2.45587C10.7815 2.42656 10.8539 2.41122 10.9271 2.41072ZM10.9266 2.50308C10.8661 2.50364 10.8063 2.51658 10.7505 2.54086C10.6944 2.56523 10.6433 2.60042 10.6003 2.64521C10.5572 2.69016 10.5224 2.74385 10.4992 2.80262C10.4761 2.86135 10.4648 2.92444 10.4653 2.98792C10.4654 3.25899 10.6749 3.47337 10.9266 3.47366C10.9875 3.47331 11.0482 3.46118 11.1045 3.43678C11.1607 3.41238 11.2116 3.37642 11.2547 3.33153C11.2977 3.28672 11.3316 3.23358 11.3548 3.17502C11.378 3.11621 11.3902 3.0524 11.3897 2.98882L11.3816 2.89347C11.3759 2.86236 11.3664 2.83208 11.3548 2.80262C11.3316 2.74382 11.2978 2.69017 11.2547 2.64521C11.2116 2.60033 11.1607 2.56435 11.1045 2.53996C11.0482 2.51556 10.9875 2.50343 10.9266 2.50308Z"/>
</svg>
