<svg width="16" height="16" viewBox="0 0 16 16" fill="currentColor" xmlns="http://www.w3.org/2000/svg">
<path d="M13.8405 3.84981L11.1132 1.1575C11.0625 1.10751 11.0023 1.06787 10.9361 1.04085C10.8699 1.01383 10.7989 0.999945 10.7273 1H5.27273C4.9834 1 4.70592 1.11346 4.50134 1.31542C4.29675 1.51739 4.18182 1.79131 4.18182 2.07692V3.15385H3.09091C2.80158 3.15385 2.5241 3.26731 2.31952 3.46927C2.11493 3.67123 2 3.94515 2 4.23077V13.9231C2 14.2087 2.11493 14.4826 2.31952 14.6846C2.5241 14.8865 2.80158 15 3.09091 15H10.7273C11.0166 15 11.2941 14.8865 11.4987 14.6846C11.7032 14.4826 11.8182 14.2087 11.8182 13.9231V12.8462H12.9091C13.1984 12.8462 13.4759 12.7327 13.6805 12.5307C13.8851 12.3288 14 12.0548 14 11.7692V4.23077C14.0001 4.16004 13.986 4.08999 13.9586 4.02462C13.9312 3.95925 13.8911 3.89985 13.8405 3.84981ZM10.7273 13.9231H3.09091V4.23077H8.31977L10.7273 6.6074V12.2969C10.7273 12.301 10.7273 12.3043 10.7273 12.3077C10.7273 12.3111 10.7273 12.3144 10.7273 12.3185V13.9231ZM12.9091 11.7692H11.8182V6.38462C11.8182 6.31388 11.8042 6.24383 11.7768 6.17847C11.7494 6.1131 11.7093 6.0537 11.6586 6.00365L8.93136 3.31135C8.88067 3.26136 8.8205 3.22172 8.75428 3.1947C8.68807 3.16767 8.61711 3.15379 8.54545 3.15385H5.27273V2.07692H10.5016L12.9091 4.45356V11.7692ZM9.09091 9.61539C9.09091 9.75819 9.03344 9.89515 8.93115 9.99614C8.82886 10.0971 8.69012 10.1538 8.54545 10.1538H5.27273C5.12806 10.1538 4.98933 10.0971 4.88703 9.99614C4.78474 9.89515 4.72727 9.75819 4.72727 9.61539C4.72727 9.47258 4.78474 9.33562 4.88703 9.23463C4.98933 9.13365 5.12806 9.07692 5.27273 9.07692H8.54545C8.69012 9.07692 8.82886 9.13365 8.93115 9.23463C9.03344 9.33562 9.09091 9.47258 9.09091 9.61539ZM9.09091 11.7692C9.09091 11.912 9.03344 12.049 8.93115 12.15C8.82886 12.251 8.69012 12.3077 8.54545 12.3077H5.27273C5.12806 12.3077 4.98933 12.251 4.88703 12.15C4.78474 12.049 4.72727 11.912 4.72727 11.7692C4.72727 11.6264 4.78474 11.4895 4.88703 11.3885C4.98933 11.2875 5.12806 11.2308 5.27273 11.2308H8.54545C8.69012 11.2308 8.82886 11.2875 8.93115 11.3885C9.03344 11.4895 9.09091 11.6264 9.09091 11.7692Z"/>
</svg>
