<svg xmlns="http://www.w3.org/2000/svg"
     width="24" height="24" viewBox="0 0 24 24"
     fill="currentColor"
>
<path  fill-rule="evenodd" clip-rule="evenodd" d="M8.9359 6.35012C9.5187 6.36346 10.0745 6.601 10.4867 7.01321C10.8989 7.42542 11.1364 7.9812 11.1498 8.56399C11.163 9.14667 10.9508 9.71258 10.558 10.1431C10.165 10.5735 9.62081 10.8356 9.03942 10.8755C8.50385 10.9121 7.97556 10.755 7.54528 10.439L6.43493 11.5493C6.40328 11.581 6.36492 11.6064 6.3236 11.6236C6.28225 11.6407 6.23749 11.6499 6.19274 11.6499C6.14796 11.6499 6.10327 11.6406 6.06188 11.6236C6.02036 11.6064 5.98233 11.5811 5.95055 11.5493C5.91878 11.5176 5.89353 11.4795 5.87633 11.438C5.85926 11.3966 5.84997 11.3519 5.84997 11.3072C5.85004 11.2624 5.85921 11.2176 5.87633 11.1763C5.89353 11.135 5.91891 11.0966 5.95055 11.065L7.0609 9.95461C6.74492 9.52434 6.58782 8.99603 6.62438 8.46047C6.66431 7.87909 6.92643 7.33486 7.3568 6.94192C7.78731 6.54905 8.35322 6.33693 8.9359 6.35012ZM9.48571 7.15969C9.1974 7.04033 8.87966 7.00906 8.5736 7.06985C8.26777 7.13076 7.9866 7.28112 7.76598 7.50149C7.54528 7.72219 7.39435 8.00399 7.33336 8.31008C7.2725 8.61623 7.3038 8.9338 7.42321 9.22219C7.54271 9.51069 7.7456 9.75769 8.00524 9.93118C8.26476 10.1044 8.57016 10.1968 8.88219 10.1968C9.30044 10.1961 9.7016 10.0296 9.99743 9.73391C10.2932 9.43792 10.4608 9.03616 10.4613 8.6177C10.4612 8.30565 10.3681 8.00021 10.1947 7.74075C10.0212 7.48122 9.77408 7.27918 9.48571 7.15969Z"/>
<path fill-rule="evenodd" clip-rule="evenodd" d="M9.73571 2.70657C10.756 2.64518 11.7626 2.97624 12.5267 3.64993L12.5297 3.65286C12.795 3.89292 13.0229 4.14574 13.222 4.45364L13.2699 4.52004L13.2728 4.52395C13.56 4.94925 13.7118 5.4509 13.8002 5.91067L13.8168 5.99954L13.8197 6.01125L13.8461 6.32766C13.8623 6.63747 13.8497 6.95923 13.7923 7.27395C14.1632 7.43955 14.4912 7.63429 14.8129 7.90676L14.8685 7.95364L14.8773 7.96047C15.3519 8.39 15.6024 8.9583 15.7328 9.52297L15.7513 9.59719L15.7523 9.60598C15.904 10.4566 15.6859 11.2878 15.222 11.9849L15.2172 11.9927L15.2113 11.9995L15.1634 12.063L15.1615 12.0659C14.6034 12.7834 13.8545 13.118 13.0033 13.271L12.9945 13.273L12.9847 13.274L12.9213 13.2808L12.9164 13.2818C12.7508 13.2976 12.5804 13.2926 12.4437 13.2925L12.3265 13.2935L5.04137 13.2984C4.81445 13.2988 4.58667 13.2986 4.35973 13.2984L4.36071 13.2993H4.01403C2.98136 13.3027 2.01714 13.1669 1.17125 12.4302L1.16833 12.4273L1.09411 12.3609L1.08727 12.355L1.08141 12.3491C0.408858 11.6693 0.186749 10.83 0.200552 9.95168L0.201528 9.94583C0.228714 9.16466 0.583356 8.46973 1.13219 7.93899L1.13512 7.93606L1.18395 7.89016L1.19079 7.8843C1.40592 7.69276 1.70416 7.45689 2.04625 7.32668C1.92127 6.69283 2.08339 6.02015 2.3529 5.49172L2.35387 5.48879L2.38219 5.43606L2.38805 5.42336C2.48469 5.25787 2.59654 5.11422 2.71227 4.97903L2.75719 4.92239L2.7611 4.91848C3.19895 4.39453 3.87657 4.10373 4.515 4.022L4.52282 4.02004H4.53063C4.55252 4.01842 4.57518 4.01643 4.59704 4.01516H4.59899L4.66051 4.01223L4.72594 4.0093L4.73278 4.00833C5.44467 3.98915 6.10744 4.21582 6.64879 4.65676C6.77243 4.44206 6.91123 4.23317 7.08727 4.03176L7.15661 3.95071L7.16051 3.94583C7.81427 3.20822 8.7572 2.78362 9.73083 2.70754L9.73571 2.70657ZM7.26207 12.7788C6.78782 12.7795 6.31251 12.7798 5.83825 12.7798C5.57232 12.7798 5.30548 12.7803 5.03942 12.7808H4.36071L4.35973 12.7818L5.03942 12.7808C5.30548 12.7803 5.57232 12.7798 5.83825 12.7798C6.31249 12.7798 6.78686 12.7805 7.2611 12.7798L8.64684 12.7779L7.26207 12.7788ZM11.6498 12.7759H12.3246C12.3641 12.7758 12.4042 12.775 12.4437 12.7749H12.0013C11.8843 12.775 11.7665 12.7757 11.6498 12.7759ZM9.79137 3.522C9.0131 3.58367 8.28058 3.9218 7.78356 4.47903L7.78454 4.48L7.71715 4.55911L7.71422 4.56106L7.7152 4.56204L7.71422 4.56301L7.71227 4.56594C7.51754 4.7882 7.37257 5.02992 7.21911 5.32961L7.19762 5.37258L7.19665 5.37161L7.05504 5.65383L6.86364 6.02981L6.34997 5.49758C6.30177 5.44771 6.25472 5.39999 6.20739 5.35403C5.80712 4.99483 5.30817 4.8125 4.75817 4.82668L4.75719 4.82571L4.70348 4.82961L4.7025 4.82864L4.6986 4.82961L4.60582 4.8345C4.12409 4.89924 3.66772 5.11694 3.39782 5.43801L3.35582 5.49075L3.35192 5.49465L3.35094 5.49368L3.34801 5.49954L3.34411 5.50344C3.24638 5.61726 3.16845 5.71976 3.10485 5.82766C2.85393 6.30183 2.75211 6.86013 2.8861 7.29739L3.13512 7.96145L2.76305 8.01223L2.48961 8.05032C2.27802 8.07956 2.01562 8.24715 1.7445 8.48782L1.74547 8.48879C1.30415 8.89907 1.0447 9.41495 1.02477 9.97219C1.01476 10.693 1.19387 11.2907 1.66344 11.7691C2.29624 12.3485 3.02594 12.4842 4.01207 12.481H5.03942L5.83825 12.48C6.31225 12.48 6.7871 12.4797 7.2611 12.479C7.72263 12.4784 8.18514 12.4782 8.64684 12.4781H9.07751C9.5197 12.478 9.96234 12.4774 10.4047 12.4771C10.5642 12.4769 10.7245 12.4762 10.8841 12.4761C11.1393 12.476 11.3948 12.4765 11.6498 12.4761C11.7664 12.4759 11.8843 12.4752 12.0013 12.4751H12.6859C12.7545 12.4741 12.8149 12.4703 12.8754 12.4624C13.6033 12.3287 14.1431 12.0569 14.5404 11.522C14.8955 10.983 15.0476 10.3719 14.9427 9.76223L14.932 9.71438L14.93 9.70754C14.8232 9.24381 14.6342 8.84979 14.3256 8.56887L14.2806 8.53176L14.2787 8.52981C13.9959 8.29012 13.7069 8.12266 13.347 7.97219L12.8216 7.7554L12.9408 7.31692C13.0387 6.9562 13.0472 6.54386 13.0023 6.12649L12.9906 6.06399C12.9126 5.65835 12.7894 5.28165 12.5922 4.98684L12.5472 4.92141L12.5453 4.91848L12.5423 4.91458L12.5394 4.90969L12.5365 4.90579L12.5345 4.90383C12.3812 4.66488 12.2014 4.46313 11.974 4.25735C11.3816 3.73781 10.5965 3.47503 9.79137 3.522ZM14.6195 8.13723L14.6752 8.18411L14.6761 8.18313L14.6205 8.13625L14.6195 8.13723ZM6.56774 4.97903L6.72887 5.14016C6.67625 5.08571 6.62221 5.03175 6.56774 4.97903C6.50476 4.92201 6.44034 4.86888 6.3734 4.81887L6.56774 4.97903ZM12.9769 4.62649L13.0238 4.6929L12.9779 4.62551L12.9769 4.62649ZM4.67516 4.31204L4.61364 4.31497C4.59358 4.31613 4.57312 4.31739 4.55309 4.31887C4.40723 4.33755 4.25965 4.36838 4.11559 4.41067L4.11461 4.41165C4.25894 4.36921 4.40597 4.33858 4.55211 4.31985L4.67516 4.31204L4.74059 4.30911L4.74157 4.30813L4.67516 4.31204ZM7.48766 4.36575L7.48668 4.36672L7.48571 4.36868L7.48766 4.36575ZM9.76793 3.22415C9.44943 3.24933 9.13684 3.31745 8.84118 3.42532C9.03846 3.35339 9.2434 3.29972 9.45251 3.26418C9.55687 3.24646 9.66187 3.23252 9.76793 3.22415ZM8.14293 3.77688L8.015 3.86672C8.00527 3.87393 7.99535 3.88089 7.98571 3.88821C8.03682 3.84936 8.08945 3.81249 8.14293 3.77688Z"/>
</svg>
