<svg width="24" height="24" viewBox="0 0 24 24" fill="none" xmlns="http://www.w3.org/2000/svg">
  <g clip-path="url(#clip0_584_3696)">
    <path
      d="M7.99994 19.5C12.4182 19.5 16 16.1422 16 12V4.5C11.5817 4.5 7.99994 7.85788 7.99994 12V19.5Z"
      fill="#85939D" />
    <path fill-rule="evenodd" clip-rule="evenodd"
      d="M12.8885 18.9115C15.2502 17.4287 16.8182 14.8992 16.8182 12V4.5387C20.8521 4.92288 24 8.11675 24 12C24 16.1421 20.4183 19.5 16 19.5C14.8964 19.5 13.845 19.2905 12.8885 18.9115Z"
      fill="#A1B0BB" />
    <path fill-rule="evenodd" clip-rule="evenodd"
      d="M7.18179 19.4806V12.0193C7.18179 9.12014 8.74973 6.59061 11.1115 5.1077C10.155 4.72882 9.10359 4.51929 7.99997 4.51929C3.5817 4.51929 0 7.87714 0 12.0193C0 15.9025 3.14788 19.0964 7.18179 19.4806Z"
      fill="#515C65" />
  </g>
  <defs>
    <clipPath id="clip0_584_3696">
      <rect width="24" height="24" fill="white" />
    </clipPath>
  </defs>
</svg>
  