<svg xmlns="http://www.w3.org/2000/svg"
     width="24" height="24" viewBox="0 0 24 24"
     fill="currentColor"
>
  <path
    d="M8.16366 2C8.17521 2.01293 8.16671 2.03644 8.16848 2.03729C8.41151 2.15299 8.48404 2.40831 8.60619 2.6165C8.96818 3.23349 9.31465 3.86003 9.66825 4.4822C9.99186 5.05162 10.3167 5.62032 10.6413 6.18913C10.9871 6.79499 11.3334 7.40052 11.6792 8.00634C12.0039 8.5751 12.3277 9.1444 12.6529 9.71283C13.0023 10.3236 13.3589 10.9301 13.6999 11.5458C13.8184 11.7599 13.9469 11.9873 13.9871 12.2236C14.0526 12.6084 13.8627 12.9082 13.5518 13.1264C12.9424 13.554 12.2704 13.8174 11.5414 13.9265C11.3042 13.962 11.0645 13.9952 10.8255 13.9995C10.1869 14.0109 9.58825 13.8332 9.01084 13.5653C8.26261 13.2182 7.52171 12.8519 6.76022 12.5383C6.24019 12.3241 5.68678 12.2851 5.11805 12.3425C4.50606 12.4043 3.91975 12.5474 3.34931 12.7664C2.99335 12.9031 2.64915 13.0718 2.2987 13.2238C2.23395 13.2519 2.16457 13.2688 2.0794 13.2822C2.04098 13.254 2.02049 13.2346 2 13.2151C2.06908 13.0842 2.12518 12.9437 2.20939 12.824C2.67883 12.1565 3.23595 11.5825 3.96493 11.2164C4.49383 10.9509 5.05318 10.8051 5.64978 10.7695C6.47255 10.7203 7.23364 10.9208 7.96563 11.2699C8.32209 11.4398 8.6555 11.6601 9.01021 11.8344C9.59005 12.1194 10.2032 12.2809 10.8506 12.2346C11.0854 12.2178 11.3187 12.1509 11.5478 12.088C11.7365 12.0363 11.7781 11.8901 11.6812 11.7199C11.2429 10.9503 10.809 10.1782 10.3695 9.40932C9.87569 8.54524 9.37691 7.68412 8.88176 6.82082C8.66143 6.43667 8.44393 6.0508 8.22671 5.66478C8.12713 5.48781 8.04095 5.47581 7.93921 5.64524C7.75812 5.94685 7.58766 6.25519 7.41363 6.56123C7.05981 7.18346 6.70657 7.80603 6.3531 8.42847C6.29018 8.53925 6.22797 8.65046 6.16416 8.7607C6.10789 8.85794 6.11556 8.91332 6.24034 8.94095C7.03463 9.11682 7.74865 9.46319 8.36477 10.0116C8.47857 10.1129 8.60462 10.2053 8.69627 10.3249C8.74423 10.3875 8.76453 10.5156 8.73482 10.5867C8.69619 10.6792 8.59894 10.6485 8.50547 10.611C7.90994 10.3727 7.30913 10.1649 6.66368 10.0953C5.87739 10.0105 5.12266 10.15 4.3722 10.3493C4.03351 10.4392 3.70444 10.5666 3.3674 10.6639C3.29437 10.685 3.16853 10.6791 3.13417 10.633C3.0932 10.5781 3.09315 10.4484 3.12948 10.3823C3.42782 9.83999 3.73955 9.30539 4.04564 8.76751C4.36366 8.20867 4.67937 7.64845 4.99712 7.08944C5.34199 6.48272 5.68766 5.87648 6.03369 5.27045C6.36156 4.6962 6.69045 4.12256 7.0187 3.54853C7.27169 3.10612 7.5194 2.66038 7.78148 2.2237C7.83306 2.13776 7.93961 2.08649 8.00836 2.00961C8.04675 2 8.09758 2 8.16366 2Z"/>
</svg>
