<svg width="17" height="16" viewBox="0 0 17 16" fill="currentColor" xmlns="http://www.w3.org/2000/svg">
<path fill-rule="evenodd" clip-rule="evenodd" d="M15.2504 7.3786L9.01922 1.1521L8.6953 1.48928C7.49938 2.73418 7.42106 4.8197 8.51731 6.10727C8.53961 6.1375 8.56212 6.16336 8.57453 6.17762C8.6003 6.2072 8.63183 6.24173 8.66663 6.27898C8.73664 6.35391 8.82882 6.44939 8.93395 6.55667C9.14471 6.77173 9.41501 7.04184 9.68079 7.30548C9.94442 7.56699 10.2048 7.82334 10.4004 8.01538L9.25726 9.15639L9.55431 9.48026C10.0616 10.0334 10.6259 10.9547 10.5974 12.19L10.5709 13.3352L15.2388 8.65872L15.2469 8.65016C15.3929 8.49621 15.5199 8.28751 15.5216 8.02576C15.5232 7.76809 15.4025 7.55503 15.2615 7.39151L15.2504 7.3786ZM11.7048 8.00881L11.2838 7.59748C11.2271 7.54195 11.1459 7.46242 11.0482 7.36646C10.8527 7.17449 10.5911 6.91699 10.3265 6.65454C10.0616 6.39179 9.79497 6.1253 9.58881 5.91492C9.48548 5.80949 9.39921 5.72004 9.33658 5.65301C9.30507 5.61928 9.28173 5.59356 9.26605 5.57555L9.25865 5.56694L9.25002 5.55297L9.22602 5.52523C8.5316 4.72217 8.47613 3.42304 9.06601 2.49504L14.5763 8.00127C14.5801 8.00588 14.5835 8.01016 14.5864 8.01411L14.5849 8.01582L11.425 11.1817C11.2603 10.3591 10.893 9.69257 10.5133 9.19809L11.7048 8.00881Z"/>
<path fill-rule="evenodd" clip-rule="evenodd" d="M1.79518 8.62127L8.02631 14.8478L8.35023 14.5106C9.54615 13.2657 9.62447 11.1802 8.52822 9.89261C8.50592 9.86238 8.48341 9.83651 8.471 9.82226C8.44524 9.79267 8.41371 9.75815 8.3789 9.72089C8.30889 9.64596 8.21671 9.55049 8.11158 9.44321C7.90082 9.22815 7.63052 8.95804 7.36474 8.69439C7.10111 8.43288 6.84072 8.17653 6.64515 7.98449L7.78827 6.84349L7.49122 6.51961C6.98392 5.9665 6.41965 5.04515 6.44816 3.80982L6.47459 2.66464L1.8067 7.34116L1.79858 7.34971C1.65263 7.50366 1.5256 7.71236 1.52394 7.97411C1.52231 8.23178 1.64308 8.44484 1.78405 8.60836L1.79518 8.62127ZM5.34071 7.99106L5.76173 8.4024C5.81845 8.45792 5.89962 8.53745 5.99736 8.63341C6.19287 8.82538 6.45445 9.08288 6.71903 9.34534C6.9839 9.60808 7.25056 9.87458 7.45672 10.085C7.56005 10.1904 7.64632 10.2798 7.70895 10.3469C7.74046 10.3806 7.7638 10.4063 7.77948 10.4243L7.78689 10.4329L7.79552 10.4469L7.81951 10.4746C8.51394 11.2777 8.5694 12.5768 7.97953 13.5048L2.4692 7.99861C2.46544 7.994 2.46208 7.98971 2.4591 7.98576L2.46067 7.98405L5.62053 4.8182C5.78523 5.64074 6.15257 6.3073 6.53219 6.80178L5.34071 7.99106Z"/>
</svg>
