<svg xmlns="http://www.w3.org/2000/svg"
     width="24" height="24" viewBox="0 0 24 24"
     fill="currentColor"
>
  <path fill-rule="evenodd" clip-rule="evenodd"
    d="M5.10954 0.0656078C5.26201 0.127424 5.39966 0.229239 5.5246 0.36378C5.73284 0.586318 5.9086 0.904854 6.04272 1.2823C6.17754 1.66192 6.26507 2.08227 6.29825 2.50408C6.74269 2.24503 7.23592 2.0873 7.74461 2.04154L7.78061 2.03864C8.39473 1.98773 9.00179 2.10191 9.53121 2.38335C9.6025 2.4219 9.67239 2.46335 9.74086 2.50698C9.77615 2.09318 9.86227 1.68228 9.99498 1.31139C10.1291 0.933216 10.3049 0.615408 10.5124 0.392143C10.6284 0.262885 10.7702 0.161145 10.9282 0.0939704C11.1096 0.0212455 11.3023 0.00815506 11.49 0.063426C11.7731 0.146332 12.0159 0.331054 12.2072 0.599409C12.3823 0.844492 12.5136 1.15866 12.6032 1.53538C12.7656 2.21463 12.7938 3.10842 12.6844 4.1862L12.7218 4.21529L12.7402 4.22911C13.2745 4.64801 13.6465 5.24508 13.8435 5.93815C14.1505 7.01957 13.9959 8.23262 13.4665 8.91114L13.4538 8.92642L13.4552 8.9286C13.7496 9.48276 13.9282 10.0682 13.9663 10.674L13.9677 10.6958C14.0129 11.4703 13.8265 12.2499 13.3931 13.0157L13.3882 13.023L13.3952 13.0405C13.7284 13.8819 13.8329 14.7291 13.7044 15.5757L13.7002 15.604C13.6803 15.7277 13.6136 15.8381 13.5147 15.9112C13.4159 15.9843 13.2929 16.014 13.1729 15.9938C13.1134 15.9843 13.0564 15.9627 13.005 15.9304C12.9537 15.8981 12.909 15.8556 12.8736 15.8055C12.8382 15.7554 12.8127 15.6985 12.7987 15.6383C12.7846 15.578 12.7822 15.5154 12.7917 15.4542C12.9096 14.703 12.7988 13.9495 12.4529 13.183C12.4206 13.1118 12.4063 13.0334 12.4112 12.9549C12.4161 12.8765 12.4402 12.8006 12.4811 12.7343L12.4839 12.7299C12.9103 12.058 13.0868 11.3991 13.0486 10.7518C13.0162 10.1853 12.8192 9.62894 12.4839 9.09877C12.4187 8.9957 12.3955 8.87034 12.4193 8.74977C12.443 8.6292 12.5119 8.52311 12.611 8.45443L12.6173 8.45007C12.7889 8.33443 12.947 8.03917 13.0268 7.63555C13.1148 7.15828 13.0918 6.66631 12.9597 6.19996C12.815 5.69088 12.5503 5.26617 12.1797 4.976C11.7597 4.64582 11.2035 4.48656 10.4997 4.53237C10.4077 4.53854 10.316 4.51612 10.2364 4.46802C10.1569 4.41993 10.0932 4.34835 10.0536 4.26256C9.83192 3.77894 9.50862 3.43277 9.10556 3.21823C8.71859 3.01926 8.28536 2.93563 7.85473 2.97679C6.9759 3.04878 6.20084 3.55931 5.97001 4.20293C5.93736 4.29351 5.87862 4.37166 5.80167 4.4269C5.72471 4.48213 5.63321 4.51183 5.53942 4.51201C4.78624 4.51347 4.20318 4.69528 3.77683 5.02327C3.40835 5.30689 3.15706 5.70325 3.02435 6.17814C2.90427 6.62515 2.88782 7.09497 2.97635 7.54973C3.05541 7.95554 3.21 8.29153 3.38718 8.47261L3.39282 8.4777C3.54247 8.62824 3.57424 8.86314 3.46977 9.04859C3.21565 9.50094 3.02576 10.1751 2.9947 10.8231C2.95941 11.5634 3.126 12.2063 3.50224 12.6674L3.51353 12.6812C3.57031 12.7494 3.60683 12.833 3.61872 12.9219C3.63061 13.0109 3.61737 13.1016 3.58059 13.183C3.174 14.0819 3.04906 14.8208 3.18388 15.4026C3.20812 15.5236 3.18557 15.6495 3.12104 15.7536C3.0565 15.8577 2.95508 15.9318 2.83836 15.96C2.72163 15.9883 2.59882 15.9685 2.49605 15.9048C2.39328 15.8412 2.31868 15.7387 2.28811 15.6193C2.11658 14.879 2.23305 14.031 2.622 13.0754L2.63188 13.0499L2.62623 13.0412C2.43507 12.7503 2.2924 12.4285 2.20411 12.0892L2.20058 12.0754C2.09344 11.6521 2.05128 11.214 2.07564 10.7773C2.1067 10.1155 2.27188 9.43767 2.5147 8.89369L2.52317 8.87478L2.52176 8.87333C2.31494 8.56934 2.16176 8.18026 2.07705 7.74973L2.07352 7.73227C1.95682 7.13174 1.97931 6.51131 2.13917 5.92142C2.32411 5.25599 2.68764 4.68437 3.22341 4.27129C3.26576 4.23857 3.31024 4.20584 3.35471 4.17529C3.24247 3.08951 3.27071 2.1899 3.43377 1.50629C3.52341 1.12957 3.65541 0.815402 3.83047 0.570319C4.02106 0.302691 4.26389 0.11797 4.54695 0.0343361C4.73471 -0.0209349 4.92813 -0.0085717 5.10954 0.0648805V0.0656078ZM8.01497 6.67631C8.67568 6.67631 9.28556 6.90393 9.74156 7.2981C10.1863 7.68136 10.451 8.19626 10.451 8.70897C10.451 9.35477 10.1644 9.85802 9.65121 10.1795C9.21356 10.4522 8.62697 10.5845 7.95497 10.5845C7.24273 10.5845 6.63425 10.3962 6.19519 10.0507C5.75966 9.70894 5.51542 9.22895 5.51542 8.70897C5.51542 8.1948 5.79637 7.67846 6.26084 7.29374C6.73237 6.90321 7.35496 6.67631 8.01497 6.67631ZM8.01497 7.32792C7.52525 7.32352 7.04852 7.49014 6.66249 7.80063C6.33707 8.06972 6.15284 8.40789 6.15284 8.70969C6.15284 9.02096 6.30107 9.31258 6.58343 9.5344C6.90461 9.78675 7.37684 9.93293 7.95497 9.93293C8.51897 9.93293 8.99474 9.82602 9.31874 9.62312C9.64556 9.41949 9.81286 9.12423 9.81286 8.70897C9.81286 8.40134 9.63921 8.06172 9.33074 7.79554C8.98909 7.50101 8.52603 7.32792 8.01497 7.32792ZM8.48226 8.20789L8.48509 8.2108C8.56979 8.32062 8.55215 8.47988 8.44556 8.56715L8.23944 8.73442V9.05877C8.23906 9.13098 8.21091 9.20008 8.16116 9.25093C8.11141 9.30178 8.04411 9.33023 7.97402 9.33004C7.90394 9.33023 7.83664 9.30178 7.78689 9.25093C7.73714 9.20008 7.70898 9.13098 7.70861 9.05877V8.72424L7.51732 8.5657C7.49208 8.54487 7.4711 8.51909 7.45559 8.48986C7.44007 8.46063 7.43032 8.42853 7.42691 8.3954C7.4235 8.36227 7.42649 8.32877 7.4357 8.29684C7.44492 8.26491 7.46018 8.23517 7.48061 8.20935C7.52228 8.15709 7.58227 8.12389 7.64756 8.11694C7.71285 8.11 7.77817 8.12987 7.82932 8.17226L7.98108 8.29734L8.13638 8.1708C8.18735 8.12932 8.25203 8.10998 8.31664 8.11691C8.38125 8.12383 8.44068 8.15648 8.48226 8.20789ZM4.9246 6.8123C5.26201 6.8123 5.5366 7.09593 5.5366 7.44574C5.53679 7.61341 5.47236 7.77431 5.35748 7.89308C5.24259 8.01185 5.08664 8.07878 4.92389 8.07917C4.76138 8.07859 4.60572 8.01168 4.49101 7.89308C4.3763 7.77449 4.31189 7.61389 4.31189 7.44646C4.31151 7.27878 4.37576 7.11781 4.49051 6.9989C4.60526 6.87999 4.76184 6.81288 4.9246 6.8123ZM11.07 6.8123C11.4089 6.8123 11.6827 7.09593 11.6827 7.44574C11.6829 7.61341 11.6185 7.77431 11.5036 7.89308C11.3887 8.01185 11.2328 8.07878 11.07 8.07917C10.9075 8.07859 10.7519 8.01168 10.6372 7.89308C10.5224 7.77449 10.458 7.61389 10.458 7.44646C10.4577 7.27878 10.5219 7.11781 10.6367 6.9989C10.7514 6.87999 10.9073 6.81288 11.07 6.8123ZM4.7813 0.94558L4.77918 0.947034C4.69741 0.983671 4.62758 1.04375 4.57801 1.12012L4.57448 1.12448C4.47706 1.26193 4.39236 1.46411 4.32883 1.72955C4.20883 2.23281 4.17636 2.9157 4.2413 3.75276C4.54483 3.65967 4.87589 3.60149 5.23236 3.5804L5.23942 3.57968L5.25283 3.55495C5.2853 3.49532 5.31989 3.43786 5.3573 3.38114C5.44413 2.82043 5.37283 2.15063 5.17872 1.60374C5.08413 1.33902 4.96907 1.13103 4.85895 1.01249C4.83622 0.987841 4.81088 0.965887 4.78342 0.947034L4.7813 0.94558ZM11.2571 0.974669L11.2557 0.975397C11.2282 0.99425 11.2029 1.0162 11.1802 1.04085C11.07 1.15939 10.9543 1.36811 10.8604 1.63283C10.6557 2.21027 10.5872 2.92443 10.698 3.50332L10.739 3.57386L10.7446 3.58404H10.7658C11.1161 3.58413 11.4646 3.63606 11.8006 3.73822C11.8613 2.92079 11.8275 2.25245 11.7103 1.75864C11.6468 1.4932 11.562 1.29102 11.4639 1.15357L11.4611 1.14921C11.4116 1.07257 11.3418 1.01223 11.2599 0.975397H11.2571V0.974669Z"/>
</svg>
