<svg width="24" height="24" viewBox="0 0 24 24" fill="none" xmlns="http://www.w3.org/2000/svg">
  <path
    d="M11.9804 16.1108C11.9127 18.5295 11.9974 20.9651 12.234 21.557C12.4708 22.1489 12.9776 23.3003 14.7203 22.9269C16.1763 22.6148 16.706 22.0108 16.9359 20.6775C17.1052 19.6965 17.4316 16.9723 17.4734 16.4141"
    stroke="currentColor" stroke-width="0.719123" stroke-linecap="round" stroke-linejoin="round" />
  <path
    d="M9.89161 3.98576C9.89161 3.98576 2.00181 0.761083 2.3686 8.09422C2.44661 9.65429 4.60476 19.8987 7.1787 16.8044C8.1193 15.6728 8.96996 14.7853 8.96996 14.7853"
    stroke="currentColor" stroke-width="0.719123" stroke-linecap="round" stroke-linejoin="round" />
  <path
    d="M14.1533 3.39716C13.8802 3.48279 18.5421 1.69294 21.1915 5.07832C22.1273 6.27429 21.0428 11.1607 18.4486 15.0103"
    stroke="currentColor" stroke-width="0.719123" stroke-linecap="round" stroke-linejoin="round" />
  <path
    d="M18.4486 15.0104C18.4486 15.0104 18.6176 15.8426 21.0748 15.3354C22.1513 15.113 21.5034 15.9594 20.4116 16.4664C19.5155 16.8823 17.5065 16.9889 17.4736 16.4142C17.3892 14.9315 18.531 15.3819 18.4486 15.0104ZM18.4486 15.0104C18.3741 14.6758 17.8635 14.3474 17.5257 13.5285C17.2308 12.8137 13.4814 7.33231 18.5655 8.1464C18.7518 8.10786 17.2395 3.31046 12.4815 3.23245C7.72453 3.15444 7.8806 9.08245 7.8806 9.08245"
    stroke="currentColor" stroke-width="0.719123" stroke-linecap="round" stroke-linejoin="bevel" />
  <path
    d="M10.6487 15.5172C9.98553 16.258 10.1806 16.3881 8.85492 16.6611C7.51364 16.9375 8.30168 17.4296 8.81599 17.5581C9.43967 17.7142 10.8826 17.9351 11.8575 16.57C12.1544 16.1544 11.8557 15.4912 11.4479 15.3221C11.2509 15.2405 10.9874 15.1382 10.6487 15.5172Z"
    stroke="currentColor" stroke-width="0.719123" stroke-linecap="round" stroke-linejoin="round" />
  <path
    d="M10.6053 15.5045C10.5385 15.0689 10.7484 14.5506 10.9734 13.9442C11.3115 13.0344 12.0917 12.1244 11.4676 9.23835C11.0024 7.08768 7.88245 8.79077 7.88049 9.08239C7.87859 9.3739 8.02161 10.5605 7.82837 11.9423C7.57623 13.7454 8.97569 15.2703 10.5872 15.1143"
    stroke="currentColor" stroke-width="0.719123" stroke-linecap="round" stroke-linejoin="round" />
  <path
    d="M9.86289 9.03864C9.84883 9.13824 10.0452 9.40401 10.3013 9.43952C10.557 9.47518 10.7758 9.26748 10.7897 9.16798C10.8036 9.06838 10.6074 8.95867 10.3512 8.92302C10.0954 8.88731 9.87647 8.93928 9.86294 9.03864H9.86289Z"
    fill="currentColor" stroke="currentColor" stroke-width="0.239706" />
  <path
    d="M17.6502 8.83561C17.6641 8.93521 17.4679 9.20099 17.2118 9.2365C16.9559 9.27216 16.7371 9.06446 16.7231 8.96496C16.7095 8.86536 16.9058 8.75565 17.1617 8.71999C17.4176 8.68433 17.6364 8.73626 17.6502 8.83566V8.83561Z"
    fill="currentColor" stroke="currentColor" stroke-width="0.119853" />
  <path
    d="M18.5655 8.14624C18.6076 8.9275 18.3972 9.45963 18.3707 10.2913C18.3314 11.5002 18.947 12.8838 18.0194 14.2691"
    stroke="currentColor" stroke-width="0.719123" stroke-linecap="round" stroke-linejoin="round" />
</svg>
  