<svg viewBox="0 0 20 20" xmlns="http://www.w3.org/2000/svg" fill="currentColor">
	<g>
		<path d="m7.993 16.78a3.738 3.738 0 0 1 -1.83-3.228c0-2.059 1.64-3.728 3.663-3.728 2.024 0 3.664 1.67 3.664 3.728 0 1.455-.82 2.716-2.015 3.33.067-.193.103-.4.103-.617 0-1.027-.818-1.86-1.828-1.86s-1.828.833-1.828 1.86c0 .179.025.352.071.515zm-2.151-.794a7.014 7.014 0 0 1 -2.88-5.69c0-3.857 3.073-6.985 6.864-6.985 3.792 0 6.865 3.128 6.865 6.986a7.014 7.014 0 0 1 -2.88 5.689c.42-.711.662-1.544.662-2.434 0-2.611-2.08-4.728-4.647-4.728-2.566 0-4.646 2.117-4.646 4.728 0 .89.241 1.723.662 2.434zm3.985 2.294c4.333 0 7.845-3.575 7.845-7.983 0-4.41-3.513-7.984-7.846-7.984s-7.846 3.575-7.846 7.984c0 4.408 3.512 7.982 7.845 7.983zm-.077 1.86c-5.385 0-9.75-4.44-9.75-9.92s4.365-9.923 9.75-9.923 9.75 4.443 9.75 9.923-4.365 9.921-9.75 9.921z"/>
	</g>
</svg>