<svg xmlns="http://www.w3.org/2000/svg"
     width="24" height="24" viewBox="0 0 24 24"
     fill="currentColor"
>
  <path fill-rule="evenodd" clip-rule="evenodd"
    d="M7.77733 1.29668C7.92101 1.23346 8.08467 1.23382 8.22811 1.29759L10.306 2.22363C10.5404 2.32806 10.6923 2.5602 10.6924 2.8168V3.20953L14.4093 2.62633C14.578 2.60002 14.7309 2.73042 14.7313 2.90115V13.0931C14.7313 13.2657 14.5758 13.3969 14.4057 13.3679L10.6924 12.7293V13.3216C10.6922 13.5916 10.5249 13.8336 10.2725 13.9293L8.19909 14.7148C8.10431 14.7506 8.00192 14.7596 7.90341 14.742L7.80636 14.7148L5.71211 13.9302C5.45853 13.8351 5.29062 13.5924 5.29035 13.3216V12.733L1.59435 13.3679C1.42417 13.397 1.26874 13.2657 1.26874 13.0931V2.90478C1.26899 2.73284 1.42377 2.60083 1.59344 2.62905L5.29035 3.244V2.81771C5.29035 2.56022 5.44211 2.32673 5.67764 2.22272L7.77733 1.29668ZM6.40414 3.12065V12.9996L7.44447 13.3896V2.66171L6.40414 3.12065ZM8.55916 13.3869L9.57772 13.0005V3.11974L8.55916 2.66624V13.3869ZM2.38343 12.1017L5.20691 11.6165L5.18877 4.35779L2.38343 3.89068V12.1017ZM10.7976 4.3206V11.6165L13.6166 12.1008V3.87889L10.7976 4.3206Z"/>
</svg>
