<svg version="1.1" xmlns="http://www.w3.org/2000/svg" width="48" height="48"
     viewBox="0 0 48 48"
     fill="currentColor">
  <path
    d="M0 0 C15.84 0 31.68 0 48 0 C48 15.84 48 31.68 48 48 C32.16 48 16.32 48 0 48 C0 46.02 0 44.04 0 42 C1.31605225 41.97812622 1.31605225 41.97812622 2.65869141 41.95581055 C5.93549321 41.8945032 9.21148944 41.82030667 12.48779297 41.73754883 C13.9017449 41.70443709 15.31582464 41.67636284 16.72998047 41.65356445 C18.77105823 41.61976225 20.81097928 41.56744036 22.8515625 41.51171875 C24.07697754 41.48553467 25.30239258 41.45935059 26.56494141 41.43237305 C31.70347977 40.7855819 34.94404814 39.2108248 38.34375 35.3125 C40.2821608 31.4356784 40.59563817 28.23995874 40.5 24 C40.51546875 23.31421875 40.5309375 22.6284375 40.546875 21.921875 C40.50795785 16.82372853 39.18225284 13.91931876 36 10 C30.64674552 5.98505914 24.40716396 6.34961573 18 7 C13.72578824 8.49972343 11.31776859 10.09638974 9 14 C7.85922343 17.42232972 7.90184883 20.08673217 7.9375 23.6875 C7.94652344 24.86699219 7.95554687 26.04648437 7.96484375 27.26171875 C7.97644531 28.16535156 7.98804688 29.06898437 8 30 C10.31 30.33 12.62 30.66 15 31 C14.79375 29.824375 14.5875 28.64875 14.375 27.4375 C13.76411753 22.51553263 14.49423963 18.37751637 17.1875 14.125 C20.11833872 12.30585872 22.57930272 12.11595584 26 12 C29.80768402 13.22133261 31.46992188 14.05507814 33.4375 17.5625 C34.19676906 22.20247756 34.10024457 26.41826724 33 31 C30.76062169 34.0604837 29.58983651 34.80338783 26 36 C24.0079697 36.08291953 22.01326287 36.10738177 20.01953125 36.09765625 C18.97128174 36.09515869 17.92303223 36.09266113 16.84301758 36.09008789 C15.51294678 36.08098389 14.18287598 36.07187988 12.8125 36.0625 C8.584375 36.041875 4.35625 36.02125 0 36 C0 24.12 0 12.24 0 0 Z "
  />
</svg>
